<mxfile host="Electron" modified="2024-01-15T13:55:06.098Z" agent="Mozilla/5.0 (Windows NT 10.0; Win64; x64) AppleWebKit/537.36 (KHTML, like Gecko) draw.io/22.1.18 Chrome/120.0.6099.199 Electron/28.1.2 Safari/537.36" etag="SBsQbeB2TCJULQbbpuIM" version="22.1.18" type="device">
  <diagram name="Page-1" id="r64zDDlP73U_sB8xAXTh">
    <mxGraphModel dx="444" dy="305" grid="1" gridSize="10" guides="1" tooltips="1" connect="1" arrows="1" fold="1" page="1" pageScale="1" pageWidth="850" pageHeight="1100" math="0" shadow="0">
      <root>
        <mxCell id="0" />
        <mxCell id="1" parent="0" />
        <mxCell id="eTKu571jny_S4HA7DZpk-3" value="" style="edgeStyle=orthogonalEdgeStyle;rounded=0;orthogonalLoop=1;jettySize=auto;html=1;shape=flexArrow;fillColor=#fad7ac;strokeColor=#999999;gradientColor=#B1DDF0;gradientDirection=east;" parent="1" source="eTKu571jny_S4HA7DZpk-1" target="eTKu571jny_S4HA7DZpk-2" edge="1">
          <mxGeometry relative="1" as="geometry">
            <Array as="points">
              <mxPoint x="210" y="210" />
              <mxPoint x="330" y="210" />
            </Array>
          </mxGeometry>
        </mxCell>
        <mxCell id="MJhe_mVg8dFw_orG-Z0S-1" value="转换构造函数" style="edgeLabel;html=1;align=center;verticalAlign=middle;resizable=0;points=[];" vertex="1" connectable="0" parent="eTKu571jny_S4HA7DZpk-3">
          <mxGeometry x="-0.2726" y="-1" relative="1" as="geometry">
            <mxPoint x="18" y="-21" as="offset" />
          </mxGeometry>
        </mxCell>
        <mxCell id="eTKu571jny_S4HA7DZpk-1" value="&lt;font face=&quot;consolas&quot;&gt;其它类型&lt;/font&gt;" style="rounded=0;whiteSpace=wrap;html=1;fillColor=#fad7ac;strokeColor=#b46504;" parent="1" vertex="1">
          <mxGeometry x="170" y="230" width="80" height="50" as="geometry" />
        </mxCell>
        <mxCell id="MJhe_mVg8dFw_orG-Z0S-2" style="edgeStyle=orthogonalEdgeStyle;rounded=0;orthogonalLoop=1;jettySize=auto;html=1;shape=flexArrow;fillColor=#b1ddf0;strokeColor=#999999;gradientColor=#FAD7AC;gradientDirection=west;" edge="1" parent="1" source="eTKu571jny_S4HA7DZpk-2" target="eTKu571jny_S4HA7DZpk-1">
          <mxGeometry relative="1" as="geometry">
            <Array as="points">
              <mxPoint x="330" y="310" />
              <mxPoint x="210" y="310" />
            </Array>
          </mxGeometry>
        </mxCell>
        <mxCell id="MJhe_mVg8dFw_orG-Z0S-3" value="自定义转换函数" style="edgeLabel;html=1;align=center;verticalAlign=middle;resizable=0;points=[];" vertex="1" connectable="0" parent="MJhe_mVg8dFw_orG-Z0S-2">
          <mxGeometry x="0.008" y="-2" relative="1" as="geometry">
            <mxPoint x="5" y="22" as="offset" />
          </mxGeometry>
        </mxCell>
        <mxCell id="eTKu571jny_S4HA7DZpk-2" value="&lt;font face=&quot;consolas&quot;&gt;此类型&lt;/font&gt;" style="rounded=0;whiteSpace=wrap;html=1;fillColor=#b1ddf0;strokeColor=#10739e;" parent="1" vertex="1">
          <mxGeometry x="290" y="240" width="80" height="50" as="geometry" />
        </mxCell>
      </root>
    </mxGraphModel>
  </diagram>
</mxfile>
